<?xml version="1.0" encoding="utf-8"?>
<!-- Generator: Adobe Illustrator 26.0.1, SVG Export Plug-In . SVG Version: 6.00 Build 0)  -->
<svg version="1.1" id="Capa_1" xmlns="http://www.w3.org/2000/svg" xmlns:xlink="http://www.w3.org/1999/xlink" x="0px" y="0px"
	 viewBox="0 0 862.7 339.1" style="enable-background:new 0 0 862.7 339.1;" xml:space="preserve">
<style type="text/css">
	.st0{fill:#E8E8E8;}
	.st1{fill:#F2CB05;}
	.st2{fill:#D3D3D3;}
	.st3{fill:none;}
</style>
<g>
	<g>
		<g>
			<g>
				<path class="st0" d="M128.1,136.1v72.3H8V91.3c0-47.3,38.7-86,86-86h11.9v130.8H128.1z"/>
				<path class="st0" d="M242.7,208.4h-80.1l71.4,82.4c-14,28.6-43.5,48.4-77.3,48.4h-11.9V136.1h97.9V208.4z"/>
				<path class="st1" d="M144.8,69.4h97.9V4.8C242.7,4.8,152.6,1.5,144.8,69.4z"/>
				<path class="st2" d="M242.7,208.4v44.8c0,13.5-3.1,26.3-8.7,37.6l-71.4-82.4H242.7z"/>
			</g>
			<g>
				<g>
					<path class="st0" d="M156.6,93.4V99h11v7.7h-11v12.8h-9.1V84.7H170v8.6H156.6z"/>
					<path class="st0" d="M171.6,102.2c0-10.4,8.2-18.3,19-18.3c10.8,0,19,7.9,19,18.3c0,10.3-8.2,18.1-19,18.1
						C179.9,120.3,171.6,112.5,171.6,102.2z M200.4,102.1c0-5.3-4.2-9.5-9.7-9.5c-5.5,0-9.7,4.1-9.7,9.5c0,5.3,4.2,9.4,9.7,9.4
						C196.1,111.5,200.4,107.4,200.4,102.1z"/>
					<path class="st0" d="M230.2,115.4l-6.8-11v15h-9.2l0-34.6h13.1c7.5,0,12.8,5,12.8,11.3c0,4.3-2.6,7.9-6,9.5l9.3,13.9h-6
						C234.4,119.4,231.7,117.9,230.2,115.4z M223.3,100l3.8,0c2,0,3.7-1.4,3.7-3.5c0-2.1-1.8-3.5-3.7-3.5h-3.8V100z"/>
				</g>
			</g>
		</g>
	</g>
	<g>
		<path class="st3" d="M721.6,175.7h-15.7v30.5l15.7,0.1c8.3,0.1,15.7-6.6,15.7-15.3S729.8,175.7,721.6,175.7z"/>
		<polygon class="st0" points="302.5,76.1 337.6,127 337.7,127 372.7,76.1 372.7,129 397.1,129 397.1,4.4 395.8,4.4 337.6,84.7 
			279.4,4.4 278,4.4 278,129 302.5,129 		"/>
		<polygon class="st0" points="446.9,129 471.2,129 471.2,76.8 508.9,7.4 481.3,7.4 459.1,49.7 436.9,7.4 409.3,7.4 446.9,76.8 		
			"/>
		<polygon class="st0" points="278,273.2 302.5,273.2 302.5,224.4 344.4,224.4 344.4,200 302.5,200 302.5,175.5 351.4,175.5 
			351.4,151.2 278,151.2 		"/>
		<path class="st0" d="M433.3,228c0,13.2-10.6,22.9-22.4,22.9s-22.2-9.7-22.2-22.9v-76.6H364v76.6c0,27.5,21,47.6,46.9,47.6
			s46.9-20.1,46.9-47.6v-76.6h-24.6V228z"/>
		<path class="st0" d="M470.6,175.7h29.9v75.7c0,12,9.7,21.7,21.7,21.7h2.8v-97.4h29.9v-24.2h-84.3V175.7z"/>
		<path class="st0" d="M636.8,228c0,13.2-10.6,22.9-22.4,22.9c-11.8,0-22.2-9.7-22.2-22.9v-76.6h-24.6v76.6
			c0,27.5,21,47.6,46.9,47.6c25.9,0,46.9-20.1,46.9-47.6v-76.6h-24.6V228z"/>
		<path class="st0" d="M762.5,190.8c0-21.9-18.6-39.4-41.3-39.4h-39.7l0.1,121.6H706v-57.5l38.7,57.5h29.9L740,224.7
			C753,220.1,762.5,206.4,762.5,190.8z M721.6,206.3l-15.7-0.1v-30.5h15.7c8.2,0,15.7,6.6,15.7,15.3S729.9,206.4,721.6,206.3z"/>
		<path class="st0" d="M859.5,175.5v-24.1h-73.3v6.6c0,9.7,7.9,17.6,17.6,17.6h6.8v-0.2H859.5z"/>
		<polygon class="st0" points="786.2,199.3 786.2,273 859.5,273 859.5,248.8 810.6,248.8 810.6,223.6 852.5,223.6 852.5,199.3 
			822.8,199.3 810.6,199.3 		"/>
	</g>
</g>
</svg>
