<?xml version="1.0" encoding="utf-8"?>
<!-- Generator: Adobe Illustrator 26.0.1, SVG Export Plug-In . SVG Version: 6.00 Build 0)  -->
<svg version="1.1" id="Capa_1" xmlns="http://www.w3.org/2000/svg" xmlns:xlink="http://www.w3.org/1999/xlink" x="0px" y="0px"
	 viewBox="0 0 862.7 339.1" style="enable-background:new 0 0 862.7 339.1;" xml:space="preserve">
<style type="text/css">
	.st0{fill:#E8E8E8;}
	.st1{fill:#F2CB05;}
	.st2{fill:#D3D3D3;}
	.st3{fill:none;}
</style>
<g>
	<g>
		<g>
			<g>
				<path class="st0" d="M160.9,139.6v63H56.2V100.5c0-41.2,33.7-75,75-75h10.4v114H160.9z"/>
				<path class="st0" d="M260.8,202.6H191l62.3,71.8c-12.2,24.9-37.9,42.2-67.4,42.2h-10.4V139.6h85.4V202.6L260.8,202.6z"/>
				<path class="st1" d="M175.4,81.4h85.4V25.1C260.8,25.1,182.2,22.2,175.4,81.4z"/>
				<path class="st2" d="M260.8,202.6v39.1c0,11.8-2.7,22.9-7.6,32.8L191,202.6H260.8z"/>
			</g>
			<g>
				<g>
					<path class="st0" d="M185.7,102.3v4.9h9.6v6.7h-9.6v11.2h-7.9V94.8h19.6v7.5L185.7,102.3L185.7,102.3z"/>
					<path class="st0" d="M198.8,110c0-9.1,7.1-16,16.6-16s16.6,6.9,16.6,16c0,9-7.1,15.8-16.6,15.8
						C206.1,125.8,198.8,119,198.8,110z M223.9,109.9c0-4.6-3.7-8.3-8.5-8.3c-4.8,0-8.5,3.6-8.5,8.3c0,4.6,3.7,8.2,8.5,8.2
						C220.2,118.1,223.9,114.5,223.9,109.9z"/>
					<path class="st0" d="M249.9,121.5l-5.9-9.6V125h-8V94.8h11.4c6.5,0,11.2,4.4,11.2,9.9c0,3.7-2.3,6.9-5.2,8.3l8.1,12.1h-5.2
						C253.6,125,251.2,123.7,249.9,121.5z M243.9,108.1h3.3c1.7,0,3.2-1.2,3.2-3.1s-1.6-3.1-3.2-3.1h-3.3V108.1z"/>
				</g>
			</g>
		</g>
	</g>
	<g>
		<path class="st3" d="M678.4,174.1h-13.7v26.6l13.7,0.1c7.2,0.1,13.7-5.8,13.7-13.3C692.1,179.9,685.5,174.1,678.4,174.1z"/>
		<polygon class="st0" points="313,87.3 343.6,131.6 343.6,131.6 374.2,87.3 374.2,133.4 395.4,133.4 395.4,24.7 394.3,24.7 
			343.6,94.8 292.8,24.7 291.6,24.7 291.6,133.4 313,133.4 		"/>
		<polygon class="st0" points="438.9,133.4 460,133.4 460,87.9 492.9,27.4 468.9,27.4 449.5,64.2 430.1,27.4 406.1,27.4 438.9,87.9 
					"/>
		<polygon class="st0" points="291.6,259.1 313,259.1 313,216.6 349.5,216.6 349.5,195.3 313,195.3 313,173.9 355.6,173.9 
			355.6,152.7 291.6,152.7 		"/>
		<path class="st0" d="M427,219.7c0,11.5-9.2,20-19.5,20s-19.4-8.5-19.4-20v-66.8h-21.5v66.8c0,24,18.3,41.5,40.9,41.5
			s40.9-17.5,40.9-41.5v-66.8h-21.4L427,219.7L427,219.7z"/>
		<path class="st0" d="M459.5,174.1h26.1v66c0,10.5,8.5,18.9,18.9,18.9h2.4v-84.9H533V153h-73.5L459.5,174.1L459.5,174.1z"/>
		<path class="st0" d="M604.4,219.7c0,11.5-9.2,20-19.5,20c-10.3,0-19.4-8.5-19.4-20v-66.8h-21.4v66.8c0,24,18.3,41.5,40.9,41.5
			s40.9-17.5,40.9-41.5v-66.8h-21.4L604.4,219.7L604.4,219.7z"/>
		<path class="st0" d="M714,187.3c0-19.1-16.2-34.4-36-34.4h-34.6l0.1,106h21.3v-50.1l33.7,50.1h26.1l-30.2-42.1
			C705.8,212.8,714,200.9,714,187.3z M678.4,200.8l-13.7-0.1v-26.6h13.7c7.1,0,13.7,5.8,13.7,13.3
			C692.1,195,685.6,200.9,678.4,200.8z"/>
		<path class="st0" d="M798.6,173.9v-21h-63.9v5.8c0,8.5,6.9,15.3,15.3,15.3h5.9v-0.2L798.6,173.9L798.6,173.9z"/>
		<polygon class="st0" points="734.7,194.7 734.7,258.9 798.6,258.9 798.6,237.8 756,237.8 756,215.9 792.5,215.9 792.5,194.7 
			766.6,194.7 756,194.7 		"/>
	</g>
</g>
</svg>
